# xmcd
#
# Track frame offsets:
#	183
#	10853
#	20848
#	30310
#	44743
#	56935
#	65893
#	76233
#	86858
#	97198
#	110465
#	123850
#	134033
#	145738
#	159083
#	168788
#	180110
#	191108
#	201855
#	212823
#	225008
#	238053
#	249188
#	259695
#	266140
#	276133
#	286530
#	299270
#	309513
#
# Disc length: 4299 seconds
#
# Revision: 0
# Processed by: cddbd v1.4PL0 Copyright (c) Steve Scherf et al.
# Submitted via: audiograbber 1.81.03
#
DISCID=9e10c91d
DTITLE=Mickey Gilley - That Heart Belongs To Me
DYEAR=1900
DGENRE=Country
TTITLE0=I`m  To Blame
TTITLE1=Night After Night
TTITLE2=Susie Q
TTITLE3=I`ll Make It All Up To You
TTITLE4=Breathless
TTITLE5=Is It Wrong
TTITLE6=Lonely Wine
TTITLE7=Forgive
TTITLE8=My Babe
TTITLE9=Turn Around And Look At Me
TTITLE10=She`s  Still Got A Hold On You
TTITLE11=Running Out Of Reasons
TTITLE12=World Of Our Own
TTITLE13=That Heart Belong To Me
TTITLE14=I`m Gonna Put My Love In The Want ADS
TTITLE15=Without You
TTITLE16=It`s Just A Matter Of Making Up My Mind
TTITLE17=A New Way To Live
TTITLE18=There`s No One Like You
TTITLE19=You Can Count Me Missing
TTITLE20=Still Care About You
TTITLE21=Grapevine
TTITLE22=That`s How It`s Got To Be
TTITLE23=The Boy Who Didn`t Pass
TTITLE24=Fraulein
TTITLE25=I Miss You So
TTITLE26=Just Out Of Reach
TTITLE27=Keepin` On
TTITLE28=Watching The Way
EXTD=
EXTT0=
EXTT1=
EXTT2=
EXTT3=
EXTT4=
EXTT5=
EXTT6=
EXTT7=
EXTT8=
EXTT9=
EXTT10=
EXTT11=
EXTT12=
EXTT13=
EXTT14=
EXTT15=
EXTT16=
EXTT17=
EXTT18=
EXTT19=
EXTT20=
EXTT21=
EXTT22=
EXTT23=
EXTT24=
EXTT25=
EXTT26=
EXTT27=
EXTT28=
PLAYORDER=
